<svg xmlns="http://www.w3.org/2000/svg" xmlns:xlink="http://www.w3.org/1999/xlink" viewBox="0,0,256,256" width="50px" height="50px" fill-rule="nonzero"><g fill="#0a2ee6" fill-rule="nonzero" stroke="none" stroke-width="1" stroke-linecap="butt" stroke-linejoin="miter" stroke-miterlimit="10" stroke-dasharray="" stroke-dashoffset="0" font-family="none" font-weight="none" font-size="none" text-anchor="none" style="mix-blend-mode: normal"><g transform="scale(5.12,5.12)"><path d="M17.18945,5.02148c-0.25193,-0.00023 -0.49467,0.09463 -0.67969,0.26563l-16.18945,15.02148c-0.30231,0.27955 -0.40239,0.71582 -0.25215,1.09919c0.15024,0.38337 0.52008,0.63547 0.93184,0.63519h5.60742c0.25691,-0.00046 0.50379,-0.09977 0.68945,-0.27734l0.74609,-0.70898v11.09375c0,2.07792 1.70832,3.78711 3.78516,3.78711h11.51758l8.91992,9.6582c0.27931,0.30205 0.71509,0.40224 1.09828,0.25251c0.38318,-0.14973 0.63558,-0.51884 0.6361,-0.93024v-8.98047h4.17188c2.07792,0 3.78516,-1.70831 3.78516,-3.78516v-10.12695h7.04297c0.40903,0.00002 0.77685,-0.24905 0.92869,-0.62885c0.15184,-0.37981 0.05709,-0.81379 -0.23923,-1.09576l-15.77344,-15.00391c-0.18597,-0.17686 -0.43281,-0.27546 -0.68945,-0.27539zM17.58203,7.02148h15.24414l13.67188,13.00391h-5.25977c-0.1812,-0.0523 -0.37349,-0.0523 -0.55469,0h-7.37305l-13.16992,-11.96094c-0.38784,-0.35212 -0.98167,-0.3453 -1.36133,0.01563l-12.57227,11.96289h-2.66016zM19.48438,10.16992l12.76758,11.5957c0.18442,0.16749 0.4247,0.26012 0.67383,0.25977h7.03125v10.12695c0,0.98316 -0.80107,1.78516 -1.78516,1.78516h-5.17187c-0.55226,0.00006 -0.99994,0.44774 -1,1v7.42383l-7.48242,-8.10352c-0.18946,-0.20444 -0.45564,-0.32054 -0.73437,-0.32031h-11.95508c-0.98316,0 -1.78516,-0.80303 -1.78516,-1.78711v-12.81055c0.00051,-0.05823 -0.00406,-0.11639 -0.01367,-0.17383z"></path></g></g></svg>